PathFileType	4	(X/Y/Z)	Patient4_TMGait_0pt8_01_left_40.trc.trc
DataRate	CameraRate	NumFrames	NumMarkers	Units	OrigDataRate	OrigDataStartFrame	OrigNumFrames
89.743589743590	89.743589743590	4	33	mm	89.743589743590	71	       141
Frame#	Time	Sacral			L.Shoulder			Chest			R.Shoulder			Neck			R.ASIS			L.ASIS			R.Thigh.Superior			R.Thigh.Lateral			R.Thigh.Inferior			R.Patella			L.Thigh.Superior			L.Thigh.Lateral			L.Thigh.Inferior			L.Patella			L.Shank.Superior			L.Shank.Lateral			L.Shank.Inferior			R.Shank.Superior			R.Shank.Lateral			R.Shank.Inferior			R.Heel			R.Midfoot.Superior			R.Midfoot.Lateral			R.Toe			L.Heel			L.Midfoot.Lateral			L.Midfoot.Superior			L.Toe			L.Elbow			L.Wrist			R.Elbow			R.Wrist			
		X1	Y1	Z1	X2	Y2	Z2	X3	Y3	Z3	X4	Y4	Z4	X5	Y5	Z5	X6	Y6	Z6	X7	Y7	Z7	X8	Y8	Z8	X9	Y9	Z9	X10	Y10	Z10	X11	Y11	Z11	X12	Y12	Z12	X13	Y13	Z13	X14	Y14	Z14	X15	Y15	Z15	X16	Y16	Z16	X17	Y17	Z17	X18	Y18	Z18	X19	Y19	Z19	X20	Y20	Z20	X21	Y21	Z21	X22	Y22	Z22	X23	Y23	Z23	X24	Y24	Z24	X25	Y25	Z25	X26	Y26	Z26	X27	Y27	Z27	X28	Y28	Z28	X29	Y29	Z29	X30	Y30	Z30	X31	Y31	Z31	X32	Y32	Z32	X33	Y33	Z33	

71	45.100000000000	874.741171483785	994.763354453662	446.533873526173	1056.878084095101	1432.630951293696	287.816050427914	1150.716503219581	1359.626764671490	452.358112541449	1054.410868016000	1425.073467061215	623.253587964187	1027.069776171201	1486.233027278438	443.786402361578	1096.369780790978	935.814653225555	575.065287904352	1089.581809407595	950.891410619246	297.921862166703	1178.341512364272	766.840709882331	543.578224454832	1139.953829402284	643.723005781855	618.612590745217	1227.735248951298	611.648696953123	536.318973889087	1265.342224598973	529.614176025810	553.268027985395	1094.964113120825	725.275052578709	329.162677819490	977.485011779465	633.074519919306	262.424714849076	1032.790815971872	537.940839187763	328.710837843565	1015.529452270130	472.483965836725	337.279897070045	982.277273312229	406.235172874020	328.196066136460	878.332957571189	303.247187225917	280.080799943961	917.010672296237	187.124821572573	350.799958066381	1251.477395933466	438.422210706678	564.077003898640	1202.041446971618	322.892082692951	627.682892198113	1272.423397341497	238.777511892784	574.424716814145	1184.193593319051	49.396510542657	545.235621108001	1344.284300358159	127.965546735239	586.000991897318	1268.007948463633	50.067879210973	619.481096780730	1469.345773894971	95.468887972076	613.147478697849	778.696284930148	37.980406885593	400.277218863993	844.949005085190	35.158065459735	313.292973690398	930.674640226474	96.031197341629	334.882349293030	1054.982208896143	46.297338129810	292.758971359003	1157.604453931243	1126.150746168002	120.392872053065	1411.048631623253	1117.218838594767	164.712216789539	931.907497806003	1099.645308817159	728.428331585991	894.028166744363	843.153321743689	743.472456878162	
72	45.111142857143	877.275491297743	992.277145997918	448.818622909065	1057.159589401734	1430.565017069416	289.624060672421	1151.529042259612	1358.131794504314	454.083544916754	1055.057813797606	1423.518486166038	624.929263008084	1027.299478928883	1484.032964209614	445.474997647082	1099.090489076641	933.389490843825	576.924537737566	1088.888424317995	946.575004804422	299.360594081905	1179.711232558161	762.724532475983	545.958950117759	1138.930863282906	639.540620415704	619.517603841571	1227.107658541833	607.340412921174	537.914903013280	1262.870564793393	525.288314878440	553.907997425269	1095.267059767052	722.760752812352	330.155595129823	976.279129615716	631.719804839678	263.896953883788	1030.933315719134	535.857053736976	329.684583855272	1013.026632806451	470.085079126243	338.149547553840	978.598531713304	404.376561685772	329.048137830240	872.798864130981	303.155893770133	280.700945912381	909.534613948255	186.210878501022	350.998820802659	1249.702348475200	434.046913529537	564.508106973054	1200.048070868990	317.938444795502	626.602933509959	1271.397777486673	234.573791513484	573.509379346349	1183.753119750052	46.426748745663	542.441271623867	1343.709421793710	123.718404216492	584.507510306997	1266.838430066422	46.801254354979	617.494802373019	1468.355466067126	90.572680603939	612.693736750173	769.667367598856	37.863160359017	400.192978421141	835.993752043015	34.988178933035	313.285978115614	921.896738149091	95.848329660846	334.874665507591	1046.191013217412	45.751685918700	292.670359611456	1160.313822834673	1125.264607551644	122.208155959174	1412.914605496011	1129.383248389826	167.953060635450	925.279155964165	1102.235850331311	730.366546883190	882.529648860164	846.567435378008	744.669100179446	
73	45.122285714286	879.861849095412	989.807746918685	451.311007125401	1057.479271921534	1428.404898406173	291.506105685093	1152.397511093083	1356.669125999099	455.940640275036	1055.687680771511	1421.985502965833	626.715854427549	1027.570410234583	1481.804263564543	447.260493649179	1101.945449824548	930.969037514023	578.941376663935	1089.332955811635	943.055069147494	301.229680469529	1181.583620216250	758.931550242601	548.419688137442	1138.290488796218	635.549907641386	620.162974751605	1227.159943616907	603.408688076636	539.495234773857	1261.005755793546	521.002131491473	554.351336093863	1095.984157864816	720.253209026711	331.261892770081	975.606261403686	630.241897197285	265.587217669173	1029.811269369413	533.664564837621	330.806310695855	1011.340450819164	467.422605565325	339.146886527481	975.521195663666	402.322421950688	330.044366678588	867.714671455570	303.123803820003	281.446465557823	902.278884079761	185.286946411333	351.216723969435	1248.038227285716	429.644081868808	564.694208922125	1197.534238698642	313.321835008238	625.419926441887	1269.115290673843	230.243988100099	572.417373391494	1180.557571165836	44.213524550854	539.711755334985	1340.960720909740	119.021165392110	582.847226120506	1262.895608888914	43.924868958788	615.626358662876	1464.954071543303	84.308992246021	612.237625908989	760.634782769946	37.912308552326	400.058511460802	827.064357687972	34.875363305336	313.259986793459	913.200650651676	95.675244361367	334.823597546432	1037.458489824336	45.135423813956	292.547410346934	1162.633976597930	1123.970787911394	124.206827763428	1413.819009065602	1140.356869793357	171.207671618784	919.325329737217	1104.658409787666	732.219340105019	872.404098274327	849.723113839109	745.959505363866	
74	45.133428571429	882.419936037950	987.454149083472	453.952736844945	1057.889422607774	1426.228211240201	293.451321101852	1153.345406895107	1355.282744088728	457.925573728915	1056.335635522440	1420.518325024107	628.615438246376	1027.931284908745	1479.641025250903	449.139299336587	1104.843955376173	928.666365592264	581.111232012169	1091.709701370179	941.138484629534	303.776673049490	1183.876401197690	755.573989383565	550.938762681374	1138.066575311665	631.937315173099	620.661966239562	1227.833290530770	599.984026418972	541.074933925772	1259.806459435181	516.960971291116	554.663745471849	1097.106857536351	717.838264390308	332.514118800922	975.522023159260	628.671303248236	267.490320385163	1029.517975997956	531.410922770542	332.074976085653	1010.586588095446	464.530368482377	340.240581026884	973.123989163274	400.113948196232	331.166109813602	863.163669238753	303.223208011319	282.310081975368	895.318661190595	184.427250853173	351.433985487998	1246.606933570607	425.423630901402	564.698827852936	1194.822709321258	309.208966349534	624.327267766493	1265.895805077315	225.989972010972	571.247454776189	1175.117696667527	42.692748882991	537.278349237140	1336.448506150659	114.185660094876	581.110429175266	1256.775515708472	41.516061118200	614.010689385417	1459.662995711345	77.234346111738	611.721041686384	751.629640577016	38.299450334171	399.859537832314	818.180881134002	34.909010066704	313.205632977306	904.640864412823	95.535178402337	334.705908114697	1028.785813167646	44.443453142139	292.390409877883	1164.505101438905	1122.266367957560	126.396247730537	1413.844542453266	1150.032304786748	174.458077770646	914.231408413530	1106.787506641853	733.962918030032	863.695395977619	852.500467875906	747.361909935405	
